<?xml version="1.0" encoding="UTF-8" standalone="no"?>
<!-- Created with Inkscape (http://www.inkscape.org/) -->

<svg
   width="0.211in"
   height="0.19791654in"
   viewBox="0 0 5.3594001 5.0270803"
   version="1.1"
   id="svg1112"
   inkscape:version="1.1.2 (1:1.1+202202050942+0a00cf5339)"
   sodipodi:docname="icon_git.svg"
   xmlns:inkscape="http://www.inkscape.org/namespaces/inkscape"
   xmlns:sodipodi="http://sodipodi.sourceforge.net/DTD/sodipodi-0.dtd"
   xmlns="http://www.w3.org/2000/svg"
   xmlns:svg="http://www.w3.org/2000/svg">
  <sodipodi:namedview
     id="namedview1114"
     pagecolor="#ffffff"
     bordercolor="#666666"
     borderopacity="1.0"
     inkscape:pageshadow="2"
     inkscape:pageopacity="0.0"
     inkscape:pagecheckerboard="0"
     inkscape:document-units="mm"
     showgrid="false"
     units="in"
     height="14.24999pt"
     inkscape:zoom="10.248373"
     inkscape:cx="-22.686529"
     inkscape:cy="-9.1233998"
     inkscape:window-width="1852"
     inkscape:window-height="1016"
     inkscape:window-x="1348"
     inkscape:window-y="27"
     inkscape:window-maximized="1"
     inkscape:current-layer="layer1"
     width="0.21in" />
  <defs
     id="defs1109">
    <inkscape:path-effect
       effect="bspline"
       id="path-effect56015"
       is_visible="true"
       lpeversion="1"
       weight="33.333333"
       steps="2"
       helper_size="0"
       apply_no_weight="true"
       apply_with_weight="true"
       only_selected="false" />
    <inkscape:path-effect
       effect="bspline"
       id="path-effect56234"
       is_visible="true"
       lpeversion="1"
       weight="33.333333"
       steps="2"
       helper_size="0"
       apply_no_weight="true"
       apply_with_weight="true"
       only_selected="false" />
    <inkscape:path-effect
       effect="bspline"
       id="path-effect63451"
       is_visible="true"
       lpeversion="1"
       weight="33.333333"
       steps="2"
       helper_size="0"
       apply_no_weight="true"
       apply_with_weight="true"
       only_selected="false" />
    <inkscape:path-effect
       effect="bspline"
       id="path-effect57728"
       is_visible="true"
       lpeversion="1"
       weight="33.333333"
       steps="2"
       helper_size="0"
       apply_no_weight="true"
       apply_with_weight="true"
       only_selected="false" />
  </defs>
  <g
     inkscape:label="Layer 1"
     inkscape:groupmode="layer"
     id="layer1">
    <path
       style="fill:none;stroke:#ff6600;stroke-width:0.305594;stroke-linecap:butt;stroke-linejoin:miter;stroke-miterlimit:4;stroke-dasharray:none;stroke-opacity:1"
       d="m 17.637275,7.6442753 c 0.113522,-0.1042916 0.340547,-0.3128577 0.385124,-0.4740979 0.04458,-0.1612401 -0.09385,-0.2756737 -0.248869,-0.3524435 -0.155019,-0.07677 -0.326655,-0.115527 -0.484585,-0.1174908 -0.157929,-0.00196 -0.301896,0.033107 -0.434967,0.1078956 -0.133072,0.074789 -0.254888,0.1892217 -0.352775,0.3333273 -0.09789,0.1441057 -0.171714,0.3175953 -0.179913,0.5807851 -0.0082,0.2631898 0.04902,0.6157022 0.350012,0.995984 0.300995,0.3802817 0.849376,0.791565 1.25727,1.1007224 0.407895,0.3091575 0.67736,0.5177185 0.996631,0.6180675 0.31927,0.100349 0.6884,0.09297 0.940085,0.02928 0.251686,-0.06369 0.386418,-0.183651 0.514661,-0.312816 0.128244,-0.129165 0.250059,-0.2675913 0.262238,-0.4287892 0.01218,-0.1611978 -0.08564,-0.3457501 -0.202694,-0.4806146 -0.117057,-0.1348645 -0.253628,-0.2197608 -0.371976,-0.2338584 -0.118349,-0.014098 -0.218035,0.04313 -0.339935,0.1428474 -0.121901,0.099718 -0.265858,0.2418334 -0.342546,0.3185402 -0.07669,0.076707 -0.08576,0.087592 -0.414922,-0.1807256 -0.32916,-0.2683176 -0.978829,-0.8164753 -1.273489,-1.1203524 -0.29466,-0.3038771 -0.233784,-0.3629085 -0.203333,-0.3924371 0.03045,-0.029528 0.03046,-0.029533 0.143983,-0.133824 z"
       id="path56013"
       inkscape:path-effect="#path-effect56015"
       inkscape:original-d="m 17.523753,7.7485668 c 0.22756,-0.208021 0.45459,-0.416582 0.68106,-0.625684 -0.13788,-0.113893 -0.27631,-0.228323 -0.41528,-0.3433 -0.17111,-0.03823 -0.34275,-0.07697 -0.51494,-0.116279 -0.14342,0.03562 -0.28739,0.07068 -0.43189,0.105209 -0.12127,0.114975 -0.24309,0.229404 -0.36544,0.343291 -0.0733,0.174043 -0.14712,0.347536 -0.22149,0.520483 0.0578,0.353076 0.11498,0.705594 0.17165,1.057577 0.54503,0.408445 1.09319,0.820023 1.63897,1.22922 0.27001,0.2091132 0.53948,0.4176682 0.8084,0.6256842 0.36969,-0.0069 0.73882,-0.01426 1.10741,-0.02215 0.13528,-0.119427 0.27001,-0.239395 0.40421,-0.359907 0.12235,-0.137885 0.24417,-0.2763072 0.36544,-0.4152742 -0.0973,-0.184034 -0.1951,-0.368594 -0.29347,-0.553707 -0.13604,-0.08436 -0.27261,-0.169257 -0.40974,-0.254707 -0.0991,0.05776 -0.19879,0.11498 -0.299,0.171649 -0.14342,0.142669 -0.28738,0.284782 -0.43188,0.426355 -0.009,0.01164 -0.0179,0.02267 -0.0277,0.03323 -0.64915,-0.547637 -1.29882,-1.095793 -1.94904,-1.644502 0.0615,-0.05852 0.12235,-0.117578 0.18272,-0.177184 z" />
    <g
       id="g56526"
       transform="matrix(0.26458333,0,0,0.26458333,-93.159957,-160.93862)">
      <path
         style="fill:none;stroke:#ff6600;stroke-width:1.12037;stroke-linecap:butt;stroke-linejoin:miter;stroke-miterlimit:4;stroke-dasharray:none;stroke-opacity:1"
         d="m 358.95239,667.37429 c 2.92913,-0.0238 8.78462,-0.0713 12.02549,-0.12363 3.24088,-0.0524 3.86912,-0.10948 4.1673,-1.78573 0.29817,-1.67625 0.26967,-4.97467 0.0572,-6.83301 -0.21252,-1.85834 -0.61177,-2.2766 -3.93396,-2.43022 -3.3222,-0.15362 -9.58646,-0.0394 -12.72477,0.3375 -3.13831,0.37687 -3.15734,1.0137 -3.12873,2.70107 0.0286,1.68736 0.10471,4.42493 0.21474,5.96036 0.11002,1.53543 0.2526,1.86811 0.32317,2.03277 0.0706,0.16467 0.0705,0.16466 2.99961,0.14089 z"
         id="path56232"
         inkscape:path-effect="#path-effect56234"
         inkscape:original-d="m 356.02326,667.39806 c 5.85828,-0.0447 11.71377,-0.0921 17.56647,-0.14255 0.63017,-0.0447 1.25756,-0.11117 1.8821,-0.17115 -0.0252,-3.29571 -0.0544,-6.59412 -0.0855,-9.89539 -0.39645,-0.41546 -0.79571,-0.8337 -1.19772,-1.25473 -6.24256,0.10732 -12.50665,0.2308 -18.7642,0.3422 -0.0168,0.6397 -0.0352,1.27655 -0.0571,1.91063 0.079,2.74048 0.1549,5.47806 0.22828,8.21289 0.14538,0.33553 0.28797,0.6682 0.42776,0.99811 z" />
      <path
         style="fill:none;stroke:#ff6600;stroke-width:1.1424;stroke-linecap:butt;stroke-linejoin:miter;stroke-miterlimit:4;stroke-dasharray:none;stroke-opacity:1"
         d="m 355.94526,657.94795 8.51263,4.43377 9.90423,-5.49653"
         id="path56302" />
      <path
         style="fill:none;stroke:#ff6600;stroke-width:1.23592;stroke-linecap:butt;stroke-linejoin:miter;stroke-miterlimit:4;stroke-dasharray:none;stroke-opacity:1"
         d="m 356.05713,666.95847 6.88921,-5.24591"
         id="path56304" />
      <path
         style="fill:none;stroke:#ff6600;stroke-width:1.17504;stroke-linecap:butt;stroke-linejoin:miter;stroke-miterlimit:4;stroke-dasharray:none;stroke-opacity:1"
         d="m 366.06246,661.45806 8.45614,4.66313 v 0"
         id="path56306" />
    </g>
    <g
       id="g57962"
       transform="matrix(0.26458333,0,0,0.26458333,-91.98598,-152.36947)">
      <path
         style="fill:none;stroke:#ff6600;stroke-width:1.076;stroke-linecap:butt;stroke-linejoin:miter;stroke-miterlimit:4;stroke-dasharray:none;stroke-opacity:1"
         d="m 358.58695,707.90612 c -0.45169,-0.72546 -1.35544,-2.17692 -2.01279,-3.5873 -0.65735,-1.41038 -1.06813,-2.77966 -1.18235,-4.10797 -0.11422,-1.32831 0.0683,-2.61542 0.65723,-3.62437 0.58887,-1.00895 1.58388,-1.73923 2.79818,-2.1774 1.2143,-0.43817 2.64746,-0.58422 3.87533,-0.29645 1.22787,0.28777 2.25026,1.00892 2.90276,1.96296 0.65249,0.95404 0.93547,2.14074 0.92167,3.34563 -0.0138,1.20488 -0.32418,2.4281 -0.96776,3.87948 -0.64358,1.45137 -1.62032,3.13101 -2.2978,4.30752 -0.67747,1.17651 -1.04783,1.83593 -1.36277,2.36539 -0.31494,0.52945 -0.57052,0.92196 -0.68901,1.12282 -0.11849,0.20086 -0.1,0.21012 -0.17764,0.0961 -0.0777,-0.11398 -0.25111,-0.3513 -0.60256,-0.79863 -0.35145,-0.44732 -0.8809,-1.10458 -1.14584,-1.43346 -0.26493,-0.32889 -0.26495,-0.32891 -0.71665,-1.05436 z"
         id="path57726"
         inkscape:path-effect="#path-effect57728"
         inkscape:original-d="m 359.03865,708.63157 c -0.90326,-1.45099 -1.807,-2.90246 -2.71121,-4.35437 -0.41033,-1.36885 -0.8211,-2.73813 -1.23237,-4.10789 0.18305,-1.2867 0.36562,-2.5738 0.54772,-3.86142 0.99551,-0.72984 1.99052,-1.46011 2.98507,-2.19087 1.43371,-0.14559 2.86687,-0.29165 4.29958,-0.43818 1.02291,0.72166 2.0453,1.44281 3.06724,2.16349 0.28347,1.18722 0.56645,2.37392 0.84896,3.56018 -0.30991,1.22373 -0.62027,2.44695 -0.93113,3.66971 -0.97631,1.68018 -1.95305,3.35982 -2.93029,5.03901 -0.37381,0.67601 -0.74807,1.33324 -1.12283,1.99918 -0.25513,0.39301 -0.51073,0.78551 -0.7668,1.1776 0.0187,0.009 0.037,0.0187 0.0548,0.0274 -0.17298,-0.23688 -0.34642,-0.4742 -0.52034,-0.71203 -0.52901,-0.6568 -1.05846,-1.31406 -1.58838,-1.97179 z" />
      <ellipse
         style="opacity:1;fill:none;fill-rule:evenodd;stroke:#ff6600;stroke-width:0.99;stroke-miterlimit:4;stroke-dasharray:none"
         id="path57752"
         cx="361.18845"
         cy="699.81329"
         rx="2.8070583"
         ry="2.9029093" />
    </g>
    <path
       style="fill:none;stroke:#ff6600;stroke-width:0.342109px;stroke-linecap:butt;stroke-linejoin:miter;stroke-opacity:1"
       d="M 1.9311822,3.2847942 C 1.860747,3.209444 1.7195388,3.0583824 1.647104,2.8728358 1.5746693,2.6872893 1.5713362,2.4672843 1.653451,2.3045238 1.7355658,2.1417634 1.9030434,2.0366795 1.9818102,1.8858131 2.0605771,1.7349468 2.0507117,1.5379401 2.0591085,1.44094 c 0.0084,-0.097 0.034655,-0.093668 0.097021,-0.039297 0.062366,0.054372 0.1608669,0.1594416 0.2232342,0.2101214 0.062367,0.05068 0.088625,0.047347 0.134571,0.037454 0.045946,-0.00989 0.1116368,-0.02633 0.2463495,-0.022996 0.1347128,0.00333 0.3383029,0.026333 0.4499764,0.046202 0.1116735,0.019869 0.1312982,0.03624 0.2017553,0.0016 0.070457,-0.034635 0.1919801,-0.1200326 0.2709499,-0.167685 0.07897,-0.047652 0.1149528,-0.057481 0.1396925,-0.058981 0.02474,-0.0015 0.03782,0.00504 0.04418,0.01987 0.00636,0.01483 0.00636,0.03783 -0.010085,0.1231966 -0.016445,0.085367 -0.049275,0.2331299 -0.042592,0.3612842 0.00668,0.1281543 0.052659,0.2365249 0.075558,0.379342 0.022899,0.1428172 0.022899,0.3201372 -0.00176,0.4628909 -0.024662,0.1427537 -0.073926,0.2511401 -0.1985655,0.3364056 -0.1246395,0.085266 -0.3249605,0.1476602 -0.453004,0.1821578 -0.1280434,0.034498 -0.1838459,0.041061 -0.2197523,0.046977 -0.035906,0.00592 -0.059456,0.013766 -0.036447,0.082956 0.023009,0.06919 0.088688,0.200551 0.1494243,0.3352009 0.060736,0.1346498 0.1165545,0.2725524 0.1460556,0.4252272 0.029501,0.1526747 0.032834,0.3201481 0.034498,0.4285098 0.00166,0.1083618 0.00166,0.1641918 0.170902,0.1409989 C 3.650305,4.7491884 3.9885286,4.6506765 4.2627602,4.4768027 4.5369917,4.3029288 4.7534293,4.0465336 4.9094004,3.6936216 5.0653715,3.3407095 5.1638847,2.8875489 5.1770868,2.4820537 5.1902889,2.0765585 5.1180428,1.7186177 4.9375626,1.4049733 4.7570825,1.0913289 4.4681058,0.82205507 4.0888391,0.61670664 3.7095723,0.41135821 3.2399836,0.27015391 2.8918313,0.21425352 2.543679,0.15835312 2.3171074,0.18791782 1.9755238,0.28478639 1.6339402,0.38165497 1.177488,0.54584883 0.86374468,0.83331212 0.55000133,1.1207754 0.37924087,1.5312552 0.28587449,1.8630167 0.19250812,2.1947782 0.17566083,2.4607398 0.21338711,2.7789481 0.2511134,3.0971565 0.343246,3.4755531 0.52562541,3.8039149 0.70800481,4.1322767 0.98056652,4.411405 1.2367383,4.5820433 1.4929102,4.7526816 1.7326393,4.8150764 1.8458272,4.831652 1.959015,4.8482275 1.9458748,4.8186454 1.929441,4.777583 1.9130072,4.7365206 1.8933083,4.6839802 1.8866376,4.6428528 1.8799668,4.6017253 1.8865374,4.572141 1.8817238,4.5523602 1.8769102,4.5325794 1.8607074,4.5228511 1.8015804,4.5014404 1.7424534,4.4800297 1.6406719,4.4472035 1.5585878,4.4095277 1.4765037,4.371852 1.414074,4.329137 1.368038,4.2865233 1.3220021,4.2439095 1.29242,4.2011971 1.2725926,4.160071 1.2527651,4.1189448 1.2429276,4.0796544 1.2379475,4.0418643 c -0.00498,-0.03779 -0.00498,-0.07389 -0.00822,-0.1083269 -0.00324,-0.034437 -0.00981,-0.067283 -0.011488,-0.090398 -0.00168,-0.023115 0.00163,-0.036137 0.013345,-0.044531 0.011717,-0.00839 0.031265,-0.011702 0.044353,0.00164 0.013088,0.013337 0.019637,0.042826 0.02457,0.075722 0.00493,0.032896 0.00826,0.068966 0.024811,0.1133153 0.016549,0.044349 0.046091,0.096845 0.087253,0.1295488 0.041161,0.032703 0.093684,0.045831 0.1609863,0.073788 0.067302,0.027957 0.149429,0.070662 0.200094,0.080446 0.050665,0.00978 0.070365,-0.013217 0.068813,-0.062316 -0.00155,-0.0491 -0.024549,-0.1246204 -0.036113,-0.1985467 -0.011564,-0.073926 -0.011564,-0.1461763 0.013043,-0.2218417 0.024607,-0.075665 0.073864,-0.1544728 0.1083329,-0.2266393 0.034469,-0.072167 0.05417,-0.1378462 0.064055,-0.1708007 0.00988,-0.032955 0.00983,-0.032775 -0.0606,-0.1081247 z"
       id="path63449"
       inkscape:path-effect="#path-effect63451"
       inkscape:original-d="m 2.0016174,3.3601443 c -0.14086,-0.15071 -0.28207,-0.30177 -0.42362,-0.45318 -0.003,-0.21968 -0.006,-0.43969 -0.01,-0.66006 0.16782,-0.10474 0.3353,-0.20982 0.50243,-0.31525 -0.01,-0.1967 -0.0194,-0.39373 -0.0296,-0.5911 0.0266,0.004 0.0529,0.007 0.0788,0.01 0.0989,0.10543 0.19738,0.21052 0.29555,0.31526 0.0266,-0.003 0.0529,-0.006 0.0788,-0.01 0.066,-0.0161 0.1317,-0.0325 0.19704,-0.0493 0.20395,0.0233 0.40754,0.0463 0.6108,0.069 0.0201,0.0168 0.0397,0.0332 0.0591,0.0493 0.12185,-0.085 0.24335,-0.17043 0.36451,-0.25615 0.0365,-0.01 0.0726,-0.0194 0.10837,-0.0296 0.0135,0.007 0.0266,0.0135 0.0394,0.0197 2.6e-4,0.0233 2.6e-4,0.0463 0,0.069 -0.0325,0.14812 -0.0653,0.29589 -0.0985,0.44333 0.0463,0.10871 0.0923,0.21707 0.13792,0.3251 2.7e-4,0.17768 2.7e-4,0.355 0,0.53199 -0.0489,0.10871 -0.0982,0.21708 -0.14777,0.32511 -0.19998,0.0627 -0.40029,0.12513 -0.60095,0.18718 -0.0555,0.007 -0.11131,0.0135 -0.16748,0.0197 -0.0161,0.004 -0.0391,0.0135 -0.0591,0.0197 0.066,0.1317 0.1317,0.26305 0.19703,0.39407 0.0562,0.13827 0.112,0.27618 0.16748,0.41377 0.004,0.16782 0.007,0.3353 0.01,0.50243 2.6e-4,0.0496 2.6e-4,0.10543 0,0.15763 0.33859,-0.0982 0.67682,-0.19669 1.01472,-0.29555 0.21051,-0.24924 0.42725,-0.50538 0.64036,-0.75858 0.0989,-0.45284 0.19737,-0.90601 0.29555,-1.35953 -0.0719,-0.35761 -0.14415,-0.71555 -0.21674,-1.07383 -0.28864,-0.26895 -0.57762,-0.53822019 -0.86695,-0.80784016 -0.46926,-0.14087 -0.93885,-0.28207 -1.40879,-0.42362007 -0.22625,0.0299 -0.45283,0.0594 -0.67976,0.0887 -0.45613,0.16454 -0.91258,0.32874 -1.3693801,0.49259004 -0.17043,0.41083019 -0.34119,0.82131019 -0.51229003,1.23146019 -0.0161,0.2532 -0.0325,0.51919 -0.0493,0.77828 0.089,0.378 0.18424003,0.75564 0.27585003,1.13294 0.27291,0.27948 0.54546997,0.55861 0.8176901,0.83739 0.24007,0.0627 0.47979,0.12513 0.71917,0.18718 -0.0128,-0.0292 -0.0259,-0.0588 -0.0394,-0.0887 -0.0194,-0.0522 -0.0391,-0.10474 -0.0591,-0.15763 0.007,-0.0292 0.0135,-0.0588 0.0197,-0.0887 -0.0161,-0.01 -0.0325,-0.0194 -0.0493,-0.0296 -0.10147,-0.0325 -0.20326,-0.0653 -0.30541,-0.0985 -0.062,-0.0423 -0.12444,-0.085 -0.18718,-0.12807 -0.0292,-0.0423 -0.0588,-0.085 -0.0887,-0.12807 -0.01,-0.0391 -0.0194,-0.0785 -0.0296,-0.11822 2.6e-4,-0.0358 2.6e-4,-0.0719 0,-0.10837 -0.006,-0.0325 -0.0128,-0.0653 -0.0197,-0.0985 0.004,-0.0128 0.007,-0.0259 0.01,-0.0394 0.0201,-0.003 0.0397,-0.006 0.0591,-0.01 0.007,0.0299 0.0135,0.0594 0.0197,0.0887 0.004,0.0365 0.007,0.0726 0.01,0.10837 0.0299,0.0529 0.0594,0.10542 0.0887,0.15762 0.0529,0.0135 0.10543,0.0266 0.15763,0.0394 0.0824,0.043 0.16453,0.0857 0.24629,0.12807 0.02,-0.0226 0.0397,-0.0456 0.0591,-0.069 -0.0226,-0.0752 -0.0456,-0.15072 -0.069,-0.22659 2.7e-4,-0.0719 2.7e-4,-0.14415 0,-0.21674 0.0496,-0.0785 0.0989,-0.15728 0.14778,-0.23644 0.0201,-0.0653 0.0397,-0.13101 0.0591,-0.19703 z" />
  </g>
</svg>
